# xmcd
#
# Track frame offsets:
#	180
#	21221
#	45605
#	64314
#	82451
#	108474
#	128343
#	148195
#
# Disc length: 2362 seconds
#
# Revision: 1
# Processed by: cddbd v1.5.2PL0 Copyright (c) Steve Scherf et al.
# Submitted via: audiograbber 1.83.01
#
DISCID=72093808
DTITLE=Oddmongers - Experiment
DYEAR=1994
DGENRE=Metal
TTITLE0=Sound of Eternity
TTITLE1=Mindraping Psy-clones 
TTITLE2=Naked Terror
TTITLE3=Amnesia 
TTITLE4=Mechanical World 
TTITLE5=Tyrrannicide 
TTITLE6=5.M.F.P.M.F (studio live) 
TTITLE7=My Experience 
EXTD=
EXTT0=
EXTT1=
EXTT2=
EXTT3=
EXTT4=
EXTT5=
EXTT6=
EXTT7=
PLAYORDER=
